<svg width="208" height="72" viewBox="0 0 208 72" fill="none" xmlns="http://www.w3.org/2000/svg">
<circle cx="42.7116" cy="30.5085" r="20.7458" fill="white"/>
<circle cx="62.2379" cy="61.017" r="10.9831" fill="white"/>
<circle cx="10.9831" cy="51.2543" r="10.9831" fill="white"/>
<circle cx="10.9831" cy="10.9831" r="10.9831" fill="white"/>
<circle cx="67.1193" cy="9.76295" r="6.1017" fill="white"/>
<path d="M100.864 35.5188V34.2354L102.603 34.0896C102.681 34.0896 102.755 34.041 102.824 33.9438C102.893 33.8368 102.927 33.7396 102.927 33.6521C102.927 33.6132 102.922 33.5889 102.912 33.5792L100.835 28.1104H93.8647L91.8607 33.4917C91.8509 33.5111 91.846 33.5403 91.846 33.5792C91.846 33.6958 91.8951 33.8125 91.9933 33.9292C92.1014 34.0361 92.1996 34.0896 92.288 34.0896L94.071 34.2354V35.5188H88V34.2354L89.7535 33.8708L96.7824 15H99.0516L106.051 33.4333C106.12 33.6375 106.184 33.7736 106.243 33.8417C106.311 33.9097 106.459 33.9632 106.685 34.0021L108.04 34.2354V35.5188H100.864ZM97.3276 18.85L94.3952 26.6813H100.289L97.3276 18.85Z" fill="white"/>
<path d="M135.926 27.2792C135.71 27.2986 135.548 27.3715 135.439 27.4979C135.341 27.6146 135.292 27.7507 135.292 27.9063V34.8042C134.683 35.0278 134.035 35.2271 133.347 35.4021C132.758 35.5576 132.08 35.6938 131.314 35.8104C130.557 35.9368 129.771 36 128.956 36C127.836 36 126.795 35.8688 125.832 35.6063C124.879 35.3438 124.01 34.9743 123.224 34.4979C122.448 34.0215 121.76 33.4576 121.161 32.8063C120.562 32.1451 120.056 31.4257 119.643 30.6479C119.24 29.8701 118.936 29.0438 118.729 28.1688C118.523 27.284 118.42 26.3799 118.42 25.4563C118.42 23.891 118.67 22.4667 119.171 21.1833C119.672 19.8903 120.395 18.7868 121.338 17.8729C122.281 16.959 123.425 16.2542 124.771 15.7583C126.127 15.2528 127.649 15 129.339 15C129.85 15 130.341 15.0292 130.813 15.0875C131.294 15.1361 131.756 15.2042 132.198 15.2917C132.64 15.3694 133.072 15.4618 133.494 15.5688L134.762 15.8896L135.263 16.0208V20.8479H133.45L132.964 18.1646C132.934 17.9896 132.861 17.8438 132.743 17.7271C132.625 17.6007 132.497 17.5083 132.36 17.45C132.32 17.4403 132.262 17.416 132.183 17.3771C132.026 17.309 131.844 17.2361 131.638 17.1583C131.431 17.0806 131.201 17.0076 130.945 16.9396C130.7 16.8618 130.429 16.7986 130.135 16.75C129.85 16.7014 129.545 16.6771 129.221 16.6771C128.131 16.6771 127.134 16.8667 126.23 17.2458C125.326 17.625 124.55 18.1792 123.902 18.9083C123.253 19.6375 122.747 20.5417 122.384 21.6208C122.03 22.6903 121.853 23.9201 121.853 25.3104C121.853 26.7396 122.035 28.0132 122.399 29.1313C122.762 30.2493 123.278 31.1924 123.946 31.9604C124.624 32.7285 125.439 33.3167 126.392 33.725C127.345 34.1236 128.411 34.3229 129.589 34.3229C129.923 34.3229 130.243 34.2986 130.547 34.25C130.852 34.2014 131.122 34.1528 131.358 34.1042C131.593 34.0458 131.79 33.9924 131.947 33.9438C132.104 33.8951 132.203 33.8708 132.242 33.8708V27.9063C132.242 27.7507 132.188 27.6146 132.08 27.4979C131.982 27.3715 131.824 27.2986 131.608 27.2792L129.589 27.1333V25.8354H137.458V27.1333L135.926 27.2792Z" fill="white"/>
<path d="M148.28 35.5188V34.2354L150.078 34.1188C150.294 34.0993 150.451 34.0215 150.549 33.8854C150.657 33.7493 150.711 33.6083 150.711 33.4625V17.5375C150.711 17.3917 150.657 17.2556 150.549 17.1292C150.451 17.0028 150.294 16.9299 150.078 16.9104L148.28 16.7938V15.4813H156.237V16.7938L154.395 16.9104C154.189 16.9299 154.032 17.0028 153.924 17.1292C153.816 17.2556 153.762 17.3917 153.762 17.5375V33.4625C153.762 33.6083 153.816 33.7493 153.924 33.8854C154.032 34.0215 154.189 34.0993 154.395 34.1188L156.237 34.2354V35.5188H148.28Z" fill="white"/>
<path d="M167.103 35.5188V34.2354L168.857 34.1188C169.073 34.0993 169.23 34.0215 169.328 33.8854C169.436 33.7493 169.49 33.6083 169.49 33.4625V17.5375C169.49 17.3917 169.436 17.2507 169.328 17.1146C169.23 16.9785 169.073 16.9007 168.857 16.8813L167.103 16.7646V15.4813H174.81V16.7646L173.204 16.8813C172.987 16.9007 172.82 16.9785 172.703 17.1146C172.595 17.2507 172.54 17.3917 172.54 17.5375V34.0604H178.877C179.014 34.0604 179.152 34.0118 179.289 33.9146C179.437 33.8076 179.52 33.6861 179.54 33.55L180.026 29.9625H181.78V35.5188H167.103Z" fill="white"/>
<path d="M192.351 35.5188V34.2354L193.913 34.1188C194.129 34.0993 194.291 34.0215 194.399 33.8854C194.517 33.7493 194.576 33.6083 194.576 33.4625V17.5375C194.576 17.3917 194.517 17.2507 194.399 17.1146C194.291 16.9785 194.129 16.9007 193.913 16.8813L192.351 16.7646V15.4813H207.013V19.9292H205.2L204.743 17.4792C204.724 17.3333 204.66 17.2021 204.552 17.0854C204.454 16.9688 204.336 16.9104 204.198 16.9104H197.656V24.3479H202.179C202.317 24.3479 202.44 24.2896 202.548 24.1729C202.666 24.0563 202.725 23.9444 202.725 23.8375L203.034 21.7813H204.567V28.4458H203.034L202.725 26.375C202.725 26.2681 202.666 26.1514 202.548 26.025C202.43 25.8986 202.307 25.8354 202.179 25.8354H197.656V34.0604H205.289C205.416 34.0604 205.534 33.9924 205.642 33.8563C205.75 33.7201 205.814 33.5986 205.834 33.4917L206.379 30.5313H208V35.5188H192.351Z" fill="white"/>
<path d="M88 50.9064V44.0936H90.3407C91.1177 44.0936 91.7012 44.2464 92.0913 44.5521C92.4847 44.8578 92.6814 45.3102 92.6814 45.9091C92.6814 46.2273 92.5864 46.5096 92.3962 46.756C92.2061 46.9993 91.9471 47.1881 91.6193 47.3222C92.0061 47.4251 92.311 47.6217 92.5339 47.9118C92.7601 48.1988 92.8732 48.5419 92.8732 48.9412C92.8732 49.5526 92.665 50.033 92.2487 50.3824C91.8323 50.7317 91.2439 50.9064 90.4833 50.9064H88ZM88.9442 47.7199V50.1718H90.503C90.9423 50.1718 91.2881 50.0642 91.5406 49.8489C91.7963 49.6306 91.9241 49.3311 91.9241 48.9505C91.9241 48.1301 91.4553 47.7199 90.5177 47.7199H88.9442ZM88.9442 46.9993H90.3702C90.7833 46.9993 91.1128 46.9011 91.3586 46.7045C91.6078 46.508 91.7324 46.2413 91.7324 45.9044C91.7324 45.5301 91.6176 45.2587 91.3881 45.0902C91.1587 44.9187 90.8095 44.8329 90.3407 44.8329H88.9442V46.9993Z" fill="white"/>
<path d="M99.3289 47.7574H96.2259V50.1718H99.8304V50.9064H95.2818V44.0936H99.7813V44.8329H96.2259V47.0227H99.3289V47.7574Z" fill="white"/>
<path d="M102.962 50.1718H106.355V50.9064H102.013V44.0936H102.962V50.1718Z" fill="white"/>
<path d="M112.491 49.1283H109.491L108.818 50.9064H107.844L110.578 44.0936H111.404L114.143 50.9064H113.174L112.491 49.1283ZM109.777 48.389H112.211L110.991 45.2025L109.777 48.389Z" fill="white"/>
<path d="M118.74 48.1504H117.058V50.9064H116.109V44.0936H118.479C119.286 44.0936 119.906 44.2683 120.338 44.6176C120.774 44.967 120.992 45.4755 120.992 46.143C120.992 46.5673 120.871 46.9369 120.628 47.252C120.389 47.5671 120.055 47.8026 119.625 47.9586L121.307 50.8503V50.9064H120.294L118.74 48.1504ZM117.058 47.4158H118.509C118.978 47.4158 119.35 47.3004 119.625 47.0695C119.904 46.8387 120.043 46.5299 120.043 46.143C120.043 45.7219 119.91 45.3991 119.645 45.1745C119.383 44.9499 119.002 44.836 118.504 44.8329H117.058V47.4158Z" fill="white"/>
<path d="M128.367 44.0936V48.7259C128.364 49.3685 128.151 49.8942 127.728 50.3028C127.309 50.7115 126.738 50.9407 126.017 50.9906L125.766 51C124.983 51 124.358 50.7988 123.893 50.3964C123.427 49.994 123.191 49.4403 123.184 48.7353V44.0936H124.119V48.7072C124.119 49.2001 124.261 49.5838 124.547 49.8583C124.832 50.1297 125.238 50.2654 125.766 50.2654C126.301 50.2654 126.709 50.1297 126.991 49.8583C127.276 49.5869 127.418 49.2048 127.418 48.7119V44.0936H128.367Z" fill="white"/>
<path d="M132.974 47.8697C132.164 47.6482 131.574 47.3768 131.204 47.0555C130.837 46.7311 130.653 46.3318 130.653 45.8576C130.653 45.3211 130.878 44.8781 131.327 44.5287C131.779 44.1762 132.366 44 133.087 44C133.579 44 134.017 44.0905 134.4 44.2714C134.787 44.4523 135.085 44.7019 135.295 45.0201C135.508 45.3382 135.615 45.6861 135.615 46.0635H134.666C134.666 45.6517 134.528 45.3289 134.253 45.0949C133.977 44.8578 133.589 44.7393 133.087 44.7393C132.622 44.7393 132.258 44.8376 131.996 45.0341C131.737 45.2275 131.607 45.4973 131.607 45.8436C131.607 46.1212 131.73 46.3567 131.976 46.5501C132.225 46.7404 132.646 46.9151 133.24 47.0742C133.836 47.2333 134.302 47.4095 134.636 47.6029C134.974 47.7932 135.223 48.0163 135.384 48.2721C135.548 48.5279 135.63 48.8289 135.63 49.1751C135.63 49.7273 135.403 50.1702 134.951 50.504C134.499 50.8347 133.894 51 133.136 51C132.645 51 132.186 50.9111 131.76 50.7333C131.333 50.5524 131.004 50.3059 130.771 49.994C130.542 49.682 130.427 49.328 130.427 48.9318H131.376C131.376 49.3436 131.535 49.6696 131.853 49.9098C132.174 50.1468 132.602 50.2654 133.136 50.2654C133.635 50.2654 134.017 50.1687 134.282 49.9753C134.548 49.7819 134.681 49.5183 134.681 49.1845C134.681 48.8507 134.558 48.5934 134.312 48.4124C134.066 48.2284 133.62 48.0475 132.974 47.8697Z" fill="white"/>
<path d="M146.623 48.7447C146.535 49.4652 146.254 50.0221 145.782 50.4151C145.313 50.805 144.689 51 143.909 51C143.063 51 142.384 50.7115 141.873 50.1344C141.365 49.5573 141.111 48.7852 141.111 47.8182V47.1631C141.111 46.5299 141.229 45.973 141.465 45.4926C141.704 45.0123 142.042 44.6442 142.478 44.3884C142.914 44.1295 143.419 44 143.992 44C144.753 44 145.363 44.2028 145.822 44.6083C146.281 45.0107 146.548 45.5691 146.623 46.2834H145.674C145.592 45.7406 145.413 45.3476 145.138 45.1043C144.866 44.861 144.484 44.7393 143.992 44.7393C143.389 44.7393 142.915 44.9514 142.571 45.3757C142.23 45.7999 142.06 46.4035 142.06 47.1865V47.8463C142.06 48.5856 142.222 49.1736 142.547 49.6103C142.871 50.047 143.325 50.2654 143.909 50.2654C144.433 50.2654 144.835 50.1531 145.113 49.9285C145.395 49.7008 145.582 49.3061 145.674 48.7447H146.623Z" fill="white"/>
<path d="M154.431 47.7199C154.431 48.3875 154.313 48.9708 154.077 49.4699C153.841 49.9659 153.507 50.3449 153.074 50.607C152.641 50.869 152.136 51 151.559 51C150.995 51 150.495 50.869 150.059 50.607C149.623 50.3418 149.284 49.9659 149.042 49.4793C148.802 48.9895 148.679 48.4234 148.673 47.7807V47.2894C148.673 46.6344 148.792 46.0557 149.032 45.5535C149.271 45.0512 149.609 44.6676 150.045 44.4024C150.484 44.1341 150.986 44 151.549 44C152.123 44 152.628 44.1326 153.064 44.3977C153.503 44.6598 153.841 45.0419 154.077 45.5441C154.313 46.0432 154.431 46.625 154.431 47.2894V47.7199ZM153.492 47.2801C153.492 46.4721 153.321 45.8529 152.98 45.4225C152.639 44.9889 152.162 44.7721 151.549 44.7721C150.953 44.7721 150.482 44.9889 150.138 45.4225C149.797 45.8529 149.622 46.4519 149.612 47.2193V47.7199C149.612 48.5029 149.784 49.119 150.128 49.5682C150.476 50.0143 150.953 50.2373 151.559 50.2373C152.169 50.2373 152.641 50.0267 152.975 49.6056C153.31 49.1814 153.482 48.5746 153.492 47.7854V47.2801Z" fill="white"/>
<path d="M158.074 44.0936L160.415 49.6524L162.755 44.0936H163.98V50.9064H163.036V48.2533L163.124 45.3897L160.774 50.9064H160.051L157.705 45.4037L157.799 48.2533V50.9064H156.854V44.0936H158.074Z" fill="white"/>
<path d="M167.873 44.0936L170.214 49.6524L172.555 44.0936H173.779V50.9064H172.835V48.2533L172.924 45.3897L170.573 50.9064H169.85L167.505 45.4037L167.598 48.2533V50.9064H166.654V44.0936H167.873Z" fill="white"/>
<path d="M181.494 44.0936V48.7259C181.491 49.3685 181.277 49.8942 180.855 50.3028C180.435 50.7115 179.865 50.9407 179.143 50.9906L178.893 51C178.109 51 177.484 50.7988 177.019 50.3964C176.553 49.994 176.317 49.4403 176.311 48.7353V44.0936H177.245V48.7072C177.245 49.2001 177.388 49.5838 177.673 49.8583C177.958 50.1297 178.365 50.2654 178.893 50.2654C179.427 50.2654 179.835 50.1297 180.117 49.8583C180.402 49.5869 180.545 49.2048 180.545 48.7119V44.0936H181.494Z" fill="white"/>
<path d="M189.494 50.9064H188.545L184.94 45.6564V50.9064H183.991V44.0936H184.94L188.554 49.367V44.0936H189.494V50.9064Z" fill="white"/>
<path d="M193.191 50.9064H192.246V44.0936H193.191V50.9064Z" fill="white"/>
<path d="M200.728 44.8329H198.427V50.9064H197.487V44.8329H195.191V44.0936H200.728V44.8329Z" fill="white"/>
<path d="M205.059 47.514L206.928 44.0936H208L205.531 48.3656V50.9064H204.587V48.3656L202.119 44.0936H203.201L205.059 47.514Z" fill="white"/>
</svg>
