<svg width="232" height="32" viewBox="0 0 232 32" fill="none" xmlns="http://www.w3.org/2000/svg">
<g opacity="0.4">
<path d="M19.0625 16C19.0625 17.6914 17.6914 19.0625 16 19.0625C14.3086 19.0625 12.9375 17.6914 12.9375 16C12.9375 14.3086 14.3086 12.9375 16 12.9375C17.6914 12.9375 19.0625 14.3086 19.0625 16Z" fill="white"/>
<path d="M23.1621 10.5815C23.0149 10.1826 22.78 9.82153 22.4749 9.52515C22.1785 9.21997 21.8176 8.98511 21.4185 8.83789C21.0947 8.71216 20.6084 8.5625 19.7126 8.52173C18.7437 8.47754 18.4531 8.46802 16 8.46802C13.5466 8.46802 13.2561 8.47729 12.2874 8.52148C11.3916 8.5625 10.905 8.71216 10.5815 8.83789C10.1824 8.98511 9.82129 9.21997 9.52515 9.52515C9.21997 9.82153 8.98511 10.1824 8.83765 10.5815C8.71191 10.9053 8.56226 11.3918 8.52148 12.2876C8.47729 13.2563 8.46777 13.5469 8.46777 16.0002C8.46777 18.4534 8.47729 18.7439 8.52148 19.7129C8.56226 20.6086 8.71191 21.095 8.83765 21.4187C8.98511 21.8179 9.21973 22.1787 9.5249 22.4751C9.82129 22.7803 10.1821 23.0151 10.5813 23.1624C10.905 23.2883 11.3916 23.438 12.2874 23.4788C13.2561 23.5229 13.5464 23.5322 15.9998 23.5322C18.4534 23.5322 18.7439 23.5229 19.7124 23.4788C20.6082 23.438 21.0947 23.2883 21.4185 23.1624C22.2197 22.8533 22.853 22.22 23.1621 21.4187C23.2878 21.095 23.4375 20.6086 23.4785 19.7129C23.5227 18.7439 23.532 18.4534 23.532 16.0002C23.532 13.5469 23.5227 13.2563 23.4785 12.2876C23.4377 11.3918 23.2881 10.9053 23.1621 10.5815ZM16 20.7178C13.3943 20.7178 11.282 18.6057 11.282 16C11.282 13.3943 13.3943 11.2822 16 11.2822C18.6055 11.2822 20.7178 13.3943 20.7178 16C20.7178 18.6057 18.6055 20.7178 16 20.7178ZM20.9043 12.1982C20.2954 12.1982 19.8018 11.7046 19.8018 11.0957C19.8018 10.4868 20.2954 9.99316 20.9043 9.99316C21.5132 9.99316 22.0068 10.4868 22.0068 11.0957C22.0066 11.7046 21.5132 12.1982 20.9043 12.1982Z" fill="white"/>
<path d="M16 0C7.16479 0 0 7.16479 0 16C0 24.8352 7.16479 32 16 32C24.8352 32 32 24.8352 32 16C32 7.16479 24.8352 0 16 0ZM25.1321 19.7878C25.0876 20.7659 24.9321 21.4336 24.7051 22.0181C24.2278 23.2522 23.2522 24.2278 22.0181 24.7051C21.4338 24.9321 20.7659 25.0874 19.7881 25.1321C18.8083 25.1768 18.4954 25.1875 16.0002 25.1875C13.5049 25.1875 13.1921 25.1768 12.2122 25.1321C11.2344 25.0874 10.5664 24.9321 9.98218 24.7051C9.3689 24.4744 8.81372 24.1128 8.35474 23.6453C7.88745 23.1865 7.52588 22.6311 7.29517 22.0181C7.06812 21.4338 6.9126 20.7659 6.86816 19.7881C6.823 18.8081 6.8125 18.4951 6.8125 16C6.8125 13.5049 6.823 13.1919 6.86792 12.2122C6.91235 11.2341 7.06763 10.5664 7.29468 9.98193C7.52539 9.3689 7.88721 8.81348 8.35474 8.35474C8.81348 7.88721 9.3689 7.52563 9.98193 7.29492C10.5664 7.06787 11.2341 6.9126 12.2122 6.86792C13.1919 6.82324 13.5049 6.8125 16 6.8125C18.4951 6.8125 18.8081 6.82324 19.7878 6.86816C20.7659 6.9126 21.4336 7.06787 22.0181 7.29468C22.6311 7.52539 23.1865 7.88721 23.6455 8.35474C24.1128 8.81372 24.4746 9.3689 24.7051 9.98193C24.9324 10.5664 25.0876 11.2341 25.1323 12.2122C25.177 13.1919 25.1875 13.5049 25.1875 16C25.1875 18.4951 25.177 18.8081 25.1321 19.7878Z" fill="white"/>
</g>
<path opacity="0.4" d="M136 0C127.165 0 120 7.16479 120 16C120 24.8352 127.165 32 136 32C144.835 32 152 24.8352 152 16C152 7.16479 144.835 0 136 0ZM131.351 24.1875H127.454V12.4641H131.351V24.1875ZM129.402 10.8633H129.377C128.069 10.8633 127.224 9.96313 127.224 8.83813C127.224 7.68774 128.095 6.8125 129.428 6.8125C130.761 6.8125 131.582 7.68774 131.607 8.83813C131.607 9.96313 130.761 10.8633 129.402 10.8633ZM145.401 24.1875H141.505V17.9158C141.505 16.3396 140.941 15.2646 139.531 15.2646C138.455 15.2646 137.813 15.9897 137.532 16.6897C137.429 16.9402 137.404 17.2903 137.404 17.6406V24.1875H133.507C133.507 24.1875 133.558 13.564 133.507 12.4641H137.404V14.124C137.921 13.3252 138.848 12.189 140.915 12.189C143.479 12.189 145.401 13.8645 145.401 17.4653V24.1875Z" fill="white"/>
<path opacity="0.4" d="M216 32C224.839 32 232 24.8387 232 16C232 7.16133 224.839 0 216 0C207.161 0 200 7.16133 200 16C200 24.8387 207.161 32 216 32ZM207.321 15.6533L222.748 9.70533C223.464 9.44667 224.089 9.88 223.857 10.9627L223.859 10.9613L221.232 23.336C221.037 24.2133 220.516 24.4267 219.787 24.0133L215.787 21.0653L213.857 22.924C213.644 23.1373 213.464 23.3173 213.051 23.3173L213.335 19.2467L220.748 12.5493C221.071 12.2653 220.676 12.1053 220.251 12.388L211.089 18.156L207.14 16.924C206.283 16.652 206.264 16.0667 207.321 15.6533Z" fill="white"/>
<g opacity="0.4">
<path d="M58.5801 31.7917C58.4468 31.8135 58.313 31.8335 58.1787 31.8518C58.313 31.8335 58.4468 31.8135 58.5801 31.7917Z" fill="white"/>
<path d="M58.9001 31.7371C58.8364 31.7488 58.7727 31.7595 58.709 31.7705C58.7727 31.7595 58.8364 31.7488 58.9001 31.7371Z" fill="white"/>
<path d="M57.821 31.8962C57.665 31.9138 57.5081 31.9294 57.3506 31.9426C57.5081 31.9294 57.665 31.9138 57.821 31.8962Z" fill="white"/>
<path d="M58.1279 31.8586C58.053 31.8687 57.9775 31.8779 57.9023 31.8867C57.9775 31.8779 58.053 31.8687 58.1279 31.8586Z" fill="white"/>
<path d="M59.335 31.6506C59.2788 31.6626 59.2224 31.6746 59.166 31.686C59.2224 31.6746 59.2788 31.6626 59.335 31.6506Z" fill="white"/>
<path d="M60.4165 31.3821C60.3711 31.395 60.3257 31.4072 60.2803 31.4199C60.3257 31.4072 60.3711 31.395 60.4165 31.3821Z" fill="white"/>
<path d="M60.0898 31.4714C60.0405 31.4844 59.991 31.4976 59.9414 31.51C59.991 31.4976 60.0405 31.4846 60.0898 31.4714Z" fill="white"/>
<path d="M59.6616 31.5784C59.6094 31.5906 59.5566 31.6021 59.5039 31.6138C59.5566 31.6021 59.6094 31.5906 59.6616 31.5784Z" fill="white"/>
<path d="M57.3457 31.9431C57.2615 31.9502 57.1772 31.9565 57.0928 31.9622C57.1772 31.9565 57.2615 31.9502 57.3457 31.9431Z" fill="white"/>
<path d="M72 16C72 7.16479 64.8352 0 56 0C47.1648 0 40 7.16479 40 16C40 24.8352 47.1648 32 56 32C56.094 32 56.1875 31.998 56.2812 31.9963V19.541H52.8438V15.5349H56.2812V12.5869C56.2812 9.16797 58.3684 7.30713 61.4182 7.30713C62.8787 7.30713 64.134 7.41602 64.5 7.4646V11.0378H62.397C60.7378 11.0378 60.4165 11.8264 60.4165 12.9834V15.5349H64.3838L63.8667 19.541H60.4165V31.3818C67.1042 29.4646 72 23.3032 72 16Z" fill="white"/>
<path d="M57.0571 31.9644C56.8906 31.9751 56.7234 31.9836 56.5557 31.9893C56.7234 31.9836 56.8906 31.9751 57.0571 31.9644Z" fill="white"/>
<path d="M56.5469 31.9897C56.4585 31.9927 56.3699 31.9949 56.2812 31.9963C56.3699 31.9949 56.4585 31.9927 56.5469 31.9897Z" fill="white"/>
</g>
<g opacity="0.4">
<path d="M94.0068 18.9976L99.2114 16L94.0068 13.0024V18.9976Z" fill="white"/>
<path d="M96 0C87.1648 0 80 7.16479 80 16C80 24.8352 87.1648 32 96 32C104.835 32 112 24.8352 112 16C112 7.16479 104.835 0 96 0ZM105.998 16.0164C105.998 16.0164 105.998 19.2612 105.586 20.8259C105.355 21.6824 104.68 22.3577 103.823 22.5881C102.259 23 96 23 96 23C96 23 89.7576 23 88.1765 22.5718C87.3201 22.3413 86.6448 21.6658 86.4141 20.8093C86.0022 19.2612 86.0022 16 86.0022 16C86.0022 16 86.0022 12.7554 86.4141 11.1907C86.6445 10.3342 87.3364 9.64233 88.1765 9.41187C89.7412 9 96 9 96 9C96 9 102.259 9 103.823 9.42822C104.68 9.65869 105.355 10.3342 105.586 11.1907C106.014 12.7554 105.998 16.0164 105.998 16.0164Z" fill="white"/>
</g>
<path opacity="0.4" d="M176 0C167.163 0 160 7.16341 160 16C160 24.8366 167.163 32 176 32C184.837 32 192 24.8366 192 16C192 7.16341 184.837 0 176 0ZM183.208 8.88889L175.994 14.5923L168.545 8.88889H183.208ZM183.951 23.1111H167.803V11.2976L175.246 16.9436C175.446 17.0961 175.741 17.1724 175.979 17.1724C176.223 17.1724 176.434 17.0924 176.636 16.933L183.951 11.1144V23.1111Z" fill="white"/>
</svg>
